<svg xmlns="http://www.w3.org/2000/svg" viewBox="0 0 77.589 82.725"><path d="M1364.103 445.82c-6.224 79.774-34.17 146.59-83.965 200.323 0 0-1.143-8.892-3.303-26.549-58.433 54.75-124.106 94.636-197.02 119.66-123.216 29.598-192.32-6.732-207.055-108.862 60.974 107.592 238.685 69.357 360.759-57.417a7760.983 7760.983 0 0 1-29.979-7.494c73.422-28.963 126.9-68.85 160.436-119.66z" style="fill:#37474F;fill-opacity:1;fill-rule:evenodd;stroke:none;stroke-width:12.7028" transform="matrix(.15522 0 0 .15522 -135.473 -33.572)"/><path d="M997.883 544.267c24.135-39.506-2.033-94.127-11.179-109.37 25.152 5.207 44.079 7.621 56.909 7.113 0 0-3.557-10.543-10.798-31.63-36.71.254-74.946-7.24-114.706-22.484 34.933 54.495 61.609 106.703 79.774 156.371zM1086.802 532.708c-9.908-58.56-35.44-134.142-76.47-226.999 40.902 23.754 83.202 40.65 127.154 50.684 2.16 29.979 3.303 44.841 3.303 44.841-42.174-18.292-63.133-27.438-63.133-27.438 25.405 79.138 23.373 140.111 9.146 158.785v.127zM1164.797 493.202c3.176-93.111-5.97-186.222-27.438-276.92 63.768 61.1 147.225 97.303 235.255 102.257-1.27 61.735-29.47 119.787-77.36 158.785 15.244-35.568 20.706-74.693 15.752-113.055a228.792 228.792 0 0 1-124.741-53.987c10.543 50.684 18.165 148.877-21.595 182.92z" style="fill:#26a69a;fill-opacity:1;fill-rule:evenodd;stroke:none;stroke-width:12.7028" transform="matrix(.15522 0 0 .15522 -135.473 -33.572)"/><path d="M1089.47 625.819c-138.334 60.084-255.834 2.794-190.415-127.155-7.876 83.584 43.19 110.006 152.941 79.011 0 0-7.748-5.335-23.246-15.751 53.733-2.54 108.228-17.784 163.739-45.73-31.376 55.384-65.8 100.098-103.147 133.887v-24.135l.127-.127z" style="fill:#37474F;fill-opacity:1;fill-rule:evenodd;stroke:none;stroke-width:12.7028" transform="matrix(.15522 0 0 .15522 -135.473 -33.572)"/></svg>