<?xml version="1.0" encoding="UTF-8" standalone="no"?>
<!-- Created with Inkscape (http://www.inkscape.org/) -->

<svg
   width="146.19057mm"
   height="108.94965mm"
   viewBox="0 0 146.19057 108.94965"
   version="1.1"
   id="svg5"
   xmlns="http://www.w3.org/2000/svg"
   xmlns:svg="http://www.w3.org/2000/svg">
  <defs
     id="defs2">
    <clipPath
       clipPathUnits="userSpaceOnUse"
       id="clipPath838">
      <path
         d="M 0,0 H 1562.5 V 1562.5 H 0 Z"
         clip-rule="evenodd"
         id="path836" />
    </clipPath>
    <clipPath
       clipPathUnits="userSpaceOnUse"
       id="clipPath850">
      <path
         d="M 0,0 H 1562.5 V 1562.5 H 0 Z"
         clip-rule="evenodd"
         id="path848" />
    </clipPath>
    <clipPath
       clipPathUnits="userSpaceOnUse"
       id="clipPath862">
      <path
         d="m 531.30249,313.75409 h 500.00001 v 537.5 H 531.30249 Z"
         clip-rule="evenodd"
         id="path860" />
    </clipPath>
    <clipPath
       clipPathUnits="userSpaceOnUse"
       id="clipPath882">
      <path
         d="M 0,0 H 1562.5 V 1562.5 H 0 Z"
         clip-rule="evenodd"
         id="path880" />
    </clipPath>
    <clipPath
       clipPathUnits="userSpaceOnUse"
       id="clipPath1428">
      <path
         d="M 0,0 H 1562.5 V 1562.5 H 0 Z"
         clip-rule="evenodd"
         id="path1426" />
    </clipPath>
    <clipPath
       clipPathUnits="userSpaceOnUse"
       id="clipPath1440">
      <path
         d="M 0,0 H 1562.5 V 1562.5 H 0 Z"
         clip-rule="evenodd"
         id="path1438" />
    </clipPath>
    <clipPath
       clipPathUnits="userSpaceOnUse"
       id="clipPath1452">
      <path
         d="m 531.30249,313.75409 h 500.00001 v 537.5 H 531.30249 Z"
         clip-rule="evenodd"
         id="path1450" />
    </clipPath>
    <clipPath
       clipPathUnits="userSpaceOnUse"
       id="clipPath1472">
      <path
         d="M 0,0 H 1562.5 V 1562.5 H 0 Z"
         clip-rule="evenodd"
         id="path1470" />
    </clipPath>
    <clipPath
       clipPathUnits="userSpaceOnUse"
       id="clipPath1714">
      <path
         d="M 0,0 H 1562.5 V 1562.5 H 0 Z"
         clip-rule="evenodd"
         id="path1712" />
    </clipPath>
    <clipPath
       clipPathUnits="userSpaceOnUse"
       id="clipPath1726">
      <path
         d="M 0,0 H 1562.5 V 1562.5 H 0 Z"
         clip-rule="evenodd"
         id="path1724" />
    </clipPath>
    <clipPath
       clipPathUnits="userSpaceOnUse"
       id="clipPath1738">
      <path
         d="m 531.30249,313.75409 h 500.00001 v 537.5 H 531.30249 Z"
         clip-rule="evenodd"
         id="path1736" />
    </clipPath>
    <clipPath
       clipPathUnits="userSpaceOnUse"
       id="clipPath1758">
      <path
         d="M 0,0 H 1562.5 V 1562.5 H 0 Z"
         clip-rule="evenodd"
         id="path1756" />
    </clipPath>
  </defs>
  <g
     id="layer1"
     transform="translate(-63.396202,-19.954906)">
    <g
       id="g1706"
       transform="matrix(0.08466666,0,0,0.08466666,41.437302,44.259163)">
      <g
         id="g15592"
         transform="matrix(1.8333469,0,0,1.8333469,-935.58791,-683.57783)">
        <path
           d="m 1364.1032,445.82071 c -6.2244,79.77332 -34.1704,146.58985 -83.9652,200.3225 0,0 -1.1433,-8.89194 -3.3028,-26.54876 -58.4327,54.7489 -124.1059,94.63557 -197.0198,119.65996 -123.21673,29.59746 -192.31974,-6.73245 -207.05493,-108.86264 60.97325,107.59239 238.68483,69.35706 360.75833,-57.41647 -19.9433,-4.95407 -29.9785,-7.49463 -29.9785,-7.49463 73.422,-28.9623 126.9006,-68.84895 160.4358,-119.65999 z"
           style="fill:#000000;fill-opacity:1;fill-rule:evenodd;stroke:none;stroke-width:12.7028"
           id="path1742" />
        <path
           d="m 997.88265,544.26709 c 24.13525,-39.5056 -2.03244,-94.12745 -11.17843,-109.37077 25.15148,5.20813 44.07858,7.62166 56.90838,7.11354 0,0 -3.5568,-10.54329 -10.7974,-31.62987 -36.71093,0.25406 -74.94624,-7.24057 -114.70587,-22.48389 34.93258,54.49485 61.60837,106.70317 79.77332,156.37099 z"
           style="fill:#26a69a;fill-opacity:1;fill-rule:evenodd;stroke:none;stroke-width:12.7028"
           id="path1744" />
        <path
           d="m 1086.802,532.70758 c -9.9082,-58.55974 -35.4407,-134.14115 -76.4707,-226.99832 40.9029,23.75416 83.2031,40.64883 127.1547,50.68401 2.1594,29.97851 3.3027,44.84074 3.3027,44.84074 -42.1732,-18.29197 -63.1327,-27.43796 -63.1327,-27.43796 25.4055,79.13819 23.3731,140.11142 9.146,158.78447 v 0.12703 z"
           style="fill:#26a69a;fill-opacity:1;fill-rule:evenodd;stroke:none;stroke-width:12.7028"
           id="path1746" />
        <path
           d="m 1164.7969,493.20198 c 3.1757,-93.11122 -5.9703,-186.22244 -27.438,-276.92013 63.7679,61.10027 147.225,97.30313 235.2551,102.25721 -1.2702,61.73541 -29.4704,119.78702 -77.3598,158.78447 15.2433,-35.56771 20.7055,-74.69222 15.7515,-113.05454 -46.1111,-4.95409 -89.5545,-23.75416 -124.7411,-53.98673 10.5433,50.684 18.1649,148.87633 -21.5947,182.91972 z"
           style="fill:#26a69a;fill-opacity:1;fill-rule:evenodd;stroke:none;stroke-width:12.7028"
           id="path1748" />
        <path
           d="m 1089.4695,625.81883 c -138.33302,60.08403 -255.83353,2.79462 -190.41432,-127.15463 -7.87571,83.58415 43.18938,110.00589 152.94122,79.01116 0,0 -7.7487,-5.33516 -23.246,-15.75142 53.7326,-2.54057 108.2274,-17.78387 163.7385,-45.72994 -31.3758,55.38403 -65.8003,100.09776 -103.1464,133.8871 0,0 0,-8.00277 0,-24.13527 l 0.127,-0.12703 z"
           style="fill:#000000;fill-opacity:1;fill-rule:evenodd;stroke:none;stroke-width:12.7028"
           id="path1750" />
      </g>
      <g
         id="g15544">
        <path
           d="m 303.22371,999.74877 2.33333,-49.7 13.29998,0.9334 -2.33333,48.7666 z m 24.49997,-178.0331 -13.29998,-1.8667 2.33333,-35.4666 h 13.29998 z m -10.49999,151.8998 q -9.33332,0 -20.06663,-1.1667 -10.49999,-1.1667 -20.29997,-2.5667 -9.56666,-1.6333 -16.33331,-3.0333 l 1.86666,-28 q 7.23332,0.9334 16.56664,2.1 9.33332,0.9334 18.89997,1.6334 9.56666,0.7 16.56665,0.7 7.46665,0 12.13331,-1.8667 4.9,-1.8667 7.23333,-5.6 2.33333,-3.9666 2.33333,-10.0333 0,-4.9 -2.1,-7.7 -2.1,-2.8 -7.69999,-4.6666 -5.59999,-1.8667 -15.63331,-3.7334 -18.89997,-3.5 -30.09996,-8.6333 -11.19998,-5.1333 -16.33331,-14.2333 -4.89999,-9.1 -4.89999,-24.5 0,-18.4333 6.53332,-28.6999 6.76666,-10.5 19.13331,-14.7 12.36665,-4.4333 29.39996,-4.4333 7.93332,0 17.7333,0.9333 10.03332,0.9333 19.59998,2.1 9.56665,1.1667 16.56664,2.3333 l -1.63333,28.4666 q -6.76666,-0.7 -15.86665,-1.6333 -8.86665,-0.9333 -17.96664,-1.4 -8.86665,-0.7 -15.39997,-0.7 -7.69999,0 -12.59999,1.6333 -4.89999,1.4 -7.23332,4.6667 -2.1,3.0333 -2.1,7.7 0,5.6 2.33333,8.8667 2.33333,3.0333 7.93333,5.1333 5.83332,1.8666 16.09997,4.2 13.99998,3.0333 23.56664,6.5333 9.79998,3.2667 15.63331,8.1667 6.06665,4.6666 8.63332,12.3666 2.79999,7.7 2.79999,19.3666 0,18.4333 -6.53332,29.6333 -6.53333,10.9667 -18.89997,15.8667 -12.36665,4.9 -29.86663,4.9 z"
           style="font-weight:800;font-size:233.333px;line-height:1.25;font-family:Cairo;-inkscape-font-specification:'Cairo Ultra-Bold';fill:#26a69a;stroke-width:3.125"
           id="path14622" />
        <path
           d="M 393.28987,970.81543 V 812.14899 h 36.86661 v 64.39991 h 55.06659 v -64.39991 h 36.86661 v 158.66644 h -36.86661 v -63.46657 h -55.06659 v 63.46657 z"
           style="font-weight:800;font-size:233.333px;line-height:1.25;font-family:Cairo;-inkscape-font-specification:'Cairo Ultra-Bold';stroke-width:3.125"
           id="path15239" />
        <path
           d="m 537.48943,970.81543 39.19994,-158.66644 h 61.59991 l 39.43328,158.66644 h -37.09995 l -7.93332,-29.16662 h -51.33326 l -7.46665,29.16662 z m 49.23326,-58.33325 h 41.29994 L 611.92266,841.54895 H 603.056 Z"
           style="font-weight:800;font-size:233.333px;line-height:1.25;font-family:Cairo;-inkscape-font-specification:'Cairo Ultra-Bold';stroke-width:3.125"
           id="path15241" />
        <path
           d="M 692.65542,970.81543 V 812.14899 h 62.99991 q 20.06664,0 33.36662,4.9 13.29998,4.89999 19.8333,16.56664 6.76666,11.43332 6.76666,31.96662 0,17.03331 -5.83332,28.69996 -5.83333,11.66665 -17.49998,17.49997 l 22.86663,59.03325 h -38.26661 l -18.4333,-50.63326 h -28.93329 v 50.63326 z m 36.86662,-80.49988 h 27.06662 q 7.69999,0 12.36665,-3.03333 4.89999,-3.26666 6.99999,-8.86666 2.1,-5.59999 2.1,-12.83331 0,-11.89998 -5.36666,-17.73331 -5.36666,-5.83332 -17.03331,-5.83332 h -26.13329 z"
           style="font-weight:800;font-size:233.333px;line-height:1.25;font-family:Cairo;-inkscape-font-specification:'Cairo Ultra-Bold';stroke-width:3.125"
           id="path15243" />
        <path
           d="M 836.62161,970.81543 V 812.14899 h 108.26651 v 30.09996 h -71.3999 v 33.36662 h 57.39992 v 29.86662 h -57.39992 v 34.99995 h 71.3999 v 30.33329 z"
           style="font-weight:800;font-size:233.333px;line-height:1.25;font-family:Cairo;-inkscape-font-specification:'Cairo Ultra-Bold';stroke-width:3.125"
           id="path15245" />
        <path
           d="m 1045.6875,970.81549 v -127.8665 h -40.3667 v -30.8 h 116.6665 v 30.8 h -39.4332 v 127.8665 z"
           style="font-weight:800;font-size:233.333px;line-height:1.25;font-family:Cairo;-inkscape-font-specification:'Cairo Ultra-Bold';fill:#26a69a;stroke-width:3.125"
           id="path14632" />
        <path
           d="M 1137.6205,970.81543 V 812.14899 h 36.8666 v 64.39991 h 55.0665 v -64.39991 h 36.8667 v 158.66644 h -36.8667 v -63.46657 h -55.0665 v 63.46657 z"
           style="font-weight:800;font-size:233.333px;line-height:1.25;font-family:Cairo;-inkscape-font-specification:'Cairo Ultra-Bold';stroke-width:3.125"
           id="path15249" />
        <path
           d="M 1292.7866,970.81543 V 812.14899 h 108.2666 v 30.09996 h -71.3999 v 33.36662 h 57.3999 v 29.86662 h -57.3999 v 34.99995 h 71.3999 v 30.33329 z"
           style="font-weight:800;font-size:233.333px;line-height:1.25;font-family:Cairo;-inkscape-font-specification:'Cairo Ultra-Bold';stroke-width:3.125"
           id="path15251" />
        <path
           d="m 1530.7858,973.6155 q -18.6666,0 -31.0332,-4.6667 -12.1334,-4.6667 -19.3667,-14.4666 -7,-10.0334 -10.0333,-25.4333 -2.8,-15.6333 -2.8,-37.5666 0,-21.9334 2.8,-37.5667 3.0333,-15.6333 10.0333,-25.4333 7.2333,-9.7999 19.6,-14.4666 12.6,-4.6667 31.9666,-4.6667 7.4667,0 15.8667,0.9334 8.3999,0.7 16.3333,2.1 8.1666,1.4 13.9999,2.8 l -0.9333,28.9333 q -4.6666,-0.7 -11.4333,-1.4 -6.7667,-0.7 -14,-1.1667 -7,-0.7 -13.3,-0.7 -10.4999,0 -17.0333,2.5667 -6.5333,2.5666 -10.2666,8.6333 -3.5,5.8333 -4.9,15.4 -1.1667,9.5666 -1.1667,24.0333 0,14.2333 1.1667,24.0332 1.4,9.5667 4.9,15.4 3.7333,5.8334 10.2666,8.4 6.5334,2.5667 17.2667,2.5667 9.3333,0 20.2999,-0.9334 11.2,-0.9333 18.4333,-1.6333 l 0.7,28.7 q -5.3666,1.1666 -13.2999,2.5666 -7.7,1.4 -16.8,2.1 -8.8667,0.9334 -17.2667,0.9334 z"
           style="font-weight:800;font-size:233.333px;line-height:1.25;font-family:Cairo;-inkscape-font-specification:'Cairo Ultra-Bold';fill:#26a69a;stroke-width:3.125"
           id="path14638" />
        <path
           d="m 1660.0517,973.61543 q -25.4333,0 -40.8333,-8.86666 -15.1666,-8.86665 -21.9333,-27.06663 -6.7666,-18.19997 -6.7666,-45.73326 0,-27.76663 6.7666,-45.9666 6.7667,-18.43331 21.9333,-27.53329 15.4,-9.09999 40.8333,-9.09999 25.4333,0 40.6,9.09999 15.1666,9.09998 21.9333,27.53329 6.7666,18.19997 6.7666,45.9666 0,27.99996 -6.7666,46.19993 -6.7667,17.96664 -21.9333,26.83329 -14.9333,8.63333 -40.6,8.63333 z m 0,-30.79996 q 13.5333,0 20.3,-5.59999 6.7667,-5.59999 9.1,-17.03331 2.3333,-11.43332 2.3333,-28.23329 0,-16.79998 -2.3333,-28.46663 -2.3333,-11.66665 -9.1,-17.49997 -6.7667,-6.06666 -20.3,-6.06666 -13.3,0 -20.2999,6.06666 -6.7667,5.83332 -9.3334,17.49997 -2.3333,11.43332 -2.3333,28.46663 0,16.56664 2.3333,27.99996 2.5667,11.43331 9.3334,17.26664 6.7666,5.59999 20.2999,5.59999 z"
           style="font-weight:800;font-size:233.333px;line-height:1.25;font-family:Cairo;-inkscape-font-specification:'Cairo Ultra-Bold';stroke-width:3.125"
           id="path15255" />
        <path
           d="m 1804.7179,973.61543 q -9.5667,0 -20.5333,-1.16667 -10.9667,-1.16666 -21,-2.8 -10.0333,-1.63333 -17.0333,-3.03332 l 2.1,-28.69996 q 7.2333,0.93333 17.0333,2.09999 9.8,0.93334 19.6,1.86667 9.8,0.7 17.0333,0.7 7.9333,0 12.8333,-1.86667 5.1333,-2.09999 7.4667,-6.06665 2.3333,-3.96667 2.3333,-10.26666 0,-5.13332 -2.3333,-8.16665 -2.1,-3.03333 -7.9334,-4.89999 -5.6,-2.1 -16.3333,-3.96666 -14.4666,-2.56667 -24.7333,-6.06666 -10.0333,-3.5 -16.3333,-8.86666 -6.3,-5.59999 -9.1,-13.76664 -2.8,-8.39999 -2.8,-20.06664 0,-19.13331 6.7667,-29.86662 7,-10.73332 19.8333,-15.16665 12.8333,-4.43332 30.3333,-4.43332 8.1666,0 18.4333,0.93333 10.2666,0.93333 20.0666,2.09999 9.8,1.16667 17.0333,2.56667 l -1.6333,29.16662 q -7,-0.93333 -16.3333,-1.63333 -9.3333,-0.93333 -18.6666,-1.4 -9.1,-0.7 -15.8667,-0.7 -7.7,0 -12.8333,1.63333 -5.1333,1.4 -7.7,4.66666 -2.3333,3.26667 -2.3333,8.39999 0,5.83333 2.3333,9.09999 2.5667,3.03333 8.4,5.13332 6.0667,2.1 16.8,4.43333 14.4666,3.26666 24.2666,6.76666 10.0333,3.49999 16.1,8.63332 6.3,4.89999 8.8666,12.83331 2.8,7.93333 2.8,20.06664 0,18.66664 -6.7666,30.09996 -6.5334,11.43331 -19.3667,16.56664 -12.5999,5.13333 -30.7999,5.13333 z"
           style="font-weight:800;font-size:233.333px;line-height:1.25;font-family:Cairo;-inkscape-font-specification:'Cairo Ultra-Bold';stroke-width:3.125"
           id="path15257" />
        <path
           d="M 1909.7175,970.81543 V 842.94895 h -40.3666 v -30.79996 h 116.6665 v 30.79996 h -39.4333 v 127.86648 z"
           style="font-weight:800;font-size:233.333px;line-height:1.25;font-family:Cairo;-inkscape-font-specification:'Cairo Ultra-Bold';stroke-width:3.125"
           id="path15259" />
      </g>
    </g>
  </g>
</svg>
